<?xml version="1.0" encoding="UTF-8" standalone="no"?>
<!-- Created with Inkscape (http://www.inkscape.org/) -->

<svg
   xmlns:dc="http://purl.org/dc/elements/1.1/"
   xmlns:cc="http://creativecommons.org/ns#"
   xmlns:rdf="http://www.w3.org/1999/02/22-rdf-syntax-ns#"
   xmlns:svg="http://www.w3.org/2000/svg"
   xmlns="http://www.w3.org/2000/svg"
   xmlns:xlink="http://www.w3.org/1999/xlink"
   xmlns:sodipodi="http://sodipodi.sourceforge.net/DTD/sodipodi-0.dtd"
   xmlns:inkscape="http://www.inkscape.org/namespaces/inkscape"
   width="1600"
   height="107"
   id="svg7652"
   version="1.1"
   inkscape:version="0.92.2 (5c3e80d, 2017-08-06)"
   sodipodi:docname="footer.svg"
   inkscape:export-filename="/home/hhl/github/hhl-git/footer.png"
   inkscape:export-xdpi="90"
   inkscape:export-ydpi="90">
  <defs
     id="defs7654">
    <filter
       y="-0.25"
       x="-0.25"
       height="1.5"
       width="1.5"
       inkscape:label="Drop shadow"
       id="filter8554-99-02-3-5"
       style="color-interpolation-filters:sRGB">
      <feGaussianBlur
         result="blur"
         stdDeviation="1"
         in="SourceAlpha"
         id="feGaussianBlur8556-3-0-6-8" />
      <feColorMatrix
         values="-1 0 0 0 1 0 -1 0 0 1 0 0 -1 0 1 0 0 0 0.5 0 "
         type="matrix"
         result="bluralpha"
         id="feColorMatrix8558-6-1-1-3" />
      <feOffset
         result="offsetBlur"
         dy="-1"
         dx="1"
         in="bluralpha"
         id="feOffset8560-0-9-0-0" />
      <feMerge
         id="feMerge8562-5-62-6-2">
        <feMergeNode
           in="offsetBlur"
           id="feMergeNode8564-0-1-3-3" />
        <feMergeNode
           in="SourceGraphic"
           id="feMergeNode8566-2-20-2-4" />
      </feMerge>
    </filter>
    <linearGradient
       id="linearGradient6147-1-1-4-4-7-0-3">
      <stop
         id="stop6149-6-3-9-3-3-6-4"
         offset="0"
         style="stop-color:#5f8dd3;stop-opacity:1;" />
      <stop
         id="stop6151-5-0-9-5-1-1-6"
         offset="1"
         style="stop-color:#162d50;stop-opacity:1;" />
    </linearGradient>
    <linearGradient
       id="linearGradient6147-1-1-5-94-7-1-5-4">
      <stop
         id="stop6149-6-3-5-2-4-9-5-4"
         offset="0"
         style="stop-color:#5f8dd3;stop-opacity:1;" />
      <stop
         id="stop6151-5-0-3-06-3-0-4-3"
         offset="1"
         style="stop-color:#162d50;stop-opacity:1;" />
    </linearGradient>
    <linearGradient
       id="linearGradient6147-1-1-0-9-4-5-7-9">
      <stop
         id="stop6149-6-3-3-5-6-6-6-7"
         offset="0"
         style="stop-color:#5f8dd3;stop-opacity:1;" />
      <stop
         id="stop6151-5-0-36-6-9-7-5-9"
         offset="1"
         style="stop-color:#162d50;stop-opacity:1;" />
    </linearGradient>
    <linearGradient
       id="linearGradient6147-1-1-5-3-14-2-7-6-1">
      <stop
         id="stop6149-6-3-5-0-3-2-4-9-8"
         offset="0"
         style="stop-color:#5f8dd3;stop-opacity:1;" />
      <stop
         id="stop6151-5-0-3-0-7-6-0-3-4"
         offset="1"
         style="stop-color:#162d50;stop-opacity:1;" />
    </linearGradient>
    <linearGradient
       id="linearGradient6147-1-1-0-5-7-1-64-7-5">
      <stop
         id="stop6149-6-3-3-1-3-2-7-4-3"
         offset="0"
         style="stop-color:#5f8dd3;stop-opacity:1;" />
      <stop
         id="stop6151-5-0-36-1-39-8-4-5-1"
         offset="1"
         style="stop-color:#162d50;stop-opacity:1;" />
    </linearGradient>
    <linearGradient
       id="linearGradient6147-1-1-0-2-4-9-8-2-5">
      <stop
         id="stop6149-6-3-3-4-4-28-5-5-6"
         offset="0"
         style="stop-color:#5f8dd3;stop-opacity:1;" />
      <stop
         id="stop6151-5-0-36-9-49-8-8-4-4"
         offset="1"
         style="stop-color:#162d50;stop-opacity:1;" />
    </linearGradient>
    <linearGradient
       id="linearGradient6147-1-1-5-3-1-3-6-2-7-5">
      <stop
         id="stop6149-6-3-5-0-7-8-8-6-4-2"
         offset="0"
         style="stop-color:#5f8dd3;stop-opacity:1;" />
      <stop
         id="stop6151-5-0-3-0-2-32-3-0-4-8"
         offset="1"
         style="stop-color:#162d50;stop-opacity:1;" />
    </linearGradient>
    <linearGradient
       id="linearGradient6147-1-1-0-5-6-5-3-6-3-7">
      <stop
         id="stop6149-6-3-3-1-1-4-3-6-0-4"
         offset="0"
         style="stop-color:#5f8dd3;stop-opacity:1;" />
      <stop
         id="stop6151-5-0-36-1-5-3-3-4-7-2"
         offset="1"
         style="stop-color:#162d50;stop-opacity:1;" />
    </linearGradient>
    <linearGradient
       id="linearGradient6147-1-1-5-3-1-8-4-0-6-8-4">
      <stop
         id="stop6149-6-3-5-0-7-1-9-4-2-6-3"
         offset="0"
         style="stop-color:#5f8dd3;stop-opacity:1;" />
      <stop
         id="stop6151-5-0-3-0-2-3-5-7-8-8-5"
         offset="1"
         style="stop-color:#162d50;stop-opacity:1;" />
    </linearGradient>
    <filter
       style="color-interpolation-filters:sRGB"
       y="-0.25"
       x="-0.25"
       height="1.5"
       width="1.5"
       inkscape:label="Drop shadow"
       id="filter8554-99-02-3-2">
      <feGaussianBlur
         result="blur"
         stdDeviation="1"
         in="SourceAlpha"
         id="feGaussianBlur8556-3-0-6-1" />
      <feColorMatrix
         values="-1 0 0 0 1 0 -1 0 0 1 0 0 -1 0 1 0 0 0 0.5 0 "
         type="matrix"
         result="bluralpha"
         id="feColorMatrix8558-6-1-1-9" />
      <feOffset
         result="offsetBlur"
         dy="-1"
         dx="1"
         in="bluralpha"
         id="feOffset8560-0-9-0-1" />
      <feMerge
         id="feMerge8562-5-62-6-7">
        <feMergeNode
           in="offsetBlur"
           id="feMergeNode8564-0-1-3-0" />
        <feMergeNode
           in="SourceGraphic"
           id="feMergeNode8566-2-20-2-7" />
      </feMerge>
    </filter>
    <radialGradient
       r="57.480274"
       fy="477.45059"
       fx="1027.8583"
       cy="477.45059"
       cx="1027.8583"
       spreadMethod="pad"
       gradientTransform="matrix(1.0507753,1.0507753,-1.0507833,1.0507833,525.88971,-1084.3827)"
       gradientUnits="userSpaceOnUse"
       id="radialGradient4414-6"
       xlink:href="#linearGradient6147-1-1-4-4-7-0-1"
       inkscape:collect="always" />
    <linearGradient
       id="linearGradient6147-1-1-4-4-7-0-1">
      <stop
         id="stop6149-6-3-9-3-3-6-8"
         offset="0"
         style="stop-color:#5f8dd3;stop-opacity:1;" />
      <stop
         id="stop6151-5-0-9-5-1-1-1"
         offset="1"
         style="stop-color:#162d50;stop-opacity:1;" />
    </linearGradient>
    <radialGradient
       r="57.480274"
       fy="477.45059"
       fx="1027.8583"
       cy="477.45059"
       cx="1027.8583"
       spreadMethod="pad"
       gradientTransform="matrix(0.94569776,0.94569776,-0.94570497,0.94570497,447.86331,-788.20071)"
       gradientUnits="userSpaceOnUse"
       id="radialGradient4416-0"
       xlink:href="#linearGradient6147-1-1-5-94-7-1-5-2"
       inkscape:collect="always" />
    <linearGradient
       id="linearGradient6147-1-1-5-94-7-1-5-2">
      <stop
         id="stop6149-6-3-5-2-4-9-5-1"
         offset="0"
         style="stop-color:#5f8dd3;stop-opacity:1;" />
      <stop
         id="stop6151-5-0-3-06-3-0-4-3-4"
         offset="1"
         style="stop-color:#162d50;stop-opacity:1;" />
    </linearGradient>
    <radialGradient
       r="57.480274"
       fy="477.45059"
       fx="1027.8583"
       cy="477.45059"
       cx="1027.8583"
       spreadMethod="pad"
       gradientTransform="matrix(0.94569776,0.94569776,-0.94570497,0.94570497,450.90469,-1055.4519)"
       gradientUnits="userSpaceOnUse"
       id="radialGradient4418-7"
       xlink:href="#linearGradient6147-1-1-0-9-4-5-7-5"
       inkscape:collect="always" />
    <linearGradient
       id="linearGradient6147-1-1-0-9-4-5-7-5">
      <stop
         id="stop6149-6-3-3-5-6-6-6-8"
         offset="0"
         style="stop-color:#5f8dd3;stop-opacity:1;" />
      <stop
         id="stop6151-5-0-36-6-9-7-5-5"
         offset="1"
         style="stop-color:#162d50;stop-opacity:1;" />
    </linearGradient>
    <radialGradient
       r="57.480274"
       fy="477.45059"
       fx="1027.8583"
       cy="477.45059"
       cx="1027.8583"
       spreadMethod="pad"
       gradientTransform="matrix(0.85112803,0.85112803,-0.85113446,0.85113446,367.16622,-775.37358)"
       gradientUnits="userSpaceOnUse"
       id="radialGradient4420-0"
       xlink:href="#linearGradient6147-1-1-5-3-14-2-7-6-6"
       inkscape:collect="always" />
    <linearGradient
       id="linearGradient6147-1-1-5-3-14-2-7-6-6">
      <stop
         id="stop6149-6-3-5-0-3-2-4-9-9"
         offset="0"
         style="stop-color:#5f8dd3;stop-opacity:1;" />
      <stop
         id="stop6151-5-0-3-0-7-6-0-3-4-9"
         offset="1"
         style="stop-color:#162d50;stop-opacity:1;" />
    </linearGradient>
    <radialGradient
       r="57.480274"
       fy="477.45059"
       fx="1027.8583"
       cy="477.45059"
       cx="1027.8583"
       spreadMethod="pad"
       gradientTransform="matrix(0.85112803,0.85112803,-0.85113446,0.85113446,372.26819,-1040.5642)"
       gradientUnits="userSpaceOnUse"
       id="radialGradient4422-1"
       xlink:href="#linearGradient6147-1-1-0-5-7-1-64-7-7"
       inkscape:collect="always" />
    <linearGradient
       id="linearGradient6147-1-1-0-5-7-1-64-7-7">
      <stop
         id="stop6149-6-3-3-1-3-2-7-4-1"
         offset="0"
         style="stop-color:#5f8dd3;stop-opacity:1;" />
      <stop
         id="stop6151-5-0-36-1-39-8-4-5-7"
         offset="1"
         style="stop-color:#162d50;stop-opacity:1;" />
    </linearGradient>
    <radialGradient
       r="57.480274"
       fy="477.45059"
       fx="1027.8583"
       cy="477.45059"
       cx="1027.8583"
       spreadMethod="pad"
       gradientTransform="matrix(0.85112803,0.85112803,-0.85113446,0.85113446,374.01573,-518.01311)"
       gradientUnits="userSpaceOnUse"
       id="radialGradient4424-0"
       xlink:href="#linearGradient6147-1-1-0-2-4-9-8-2-2"
       inkscape:collect="always" />
    <linearGradient
       id="linearGradient6147-1-1-0-2-4-9-8-2-2">
      <stop
         id="stop6149-6-3-3-4-4-28-5-5-0"
         offset="0"
         style="stop-color:#5f8dd3;stop-opacity:1;" />
      <stop
         id="stop6151-5-0-36-9-49-8-8-4-1"
         offset="1"
         style="stop-color:#162d50;stop-opacity:1;" />
    </linearGradient>
    <radialGradient
       r="57.480274"
       fy="477.45059"
       fx="1027.8583"
       cy="477.45059"
       cx="1027.8583"
       spreadMethod="pad"
       gradientTransform="matrix(0.76601521,0.76601521,-0.76602101,0.76602101,288.17779,-519.67927)"
       gradientUnits="userSpaceOnUse"
       id="radialGradient4426-1"
       xlink:href="#linearGradient6147-1-1-5-3-1-3-6-2-7-9"
       inkscape:collect="always" />
    <linearGradient
       id="linearGradient6147-1-1-5-3-1-3-6-2-7-9">
      <stop
         id="stop6149-6-3-5-0-7-8-8-6-4-4"
         offset="0"
         style="stop-color:#5f8dd3;stop-opacity:1;" />
      <stop
         id="stop6151-5-0-3-0-2-32-3-0-4-7"
         offset="1"
         style="stop-color:#162d50;stop-opacity:1;" />
    </linearGradient>
    <radialGradient
       r="57.480274"
       fy="477.45059"
       fx="1027.8583"
       cy="477.45059"
       cx="1027.8583"
       spreadMethod="pad"
       gradientTransform="matrix(0.76601521,0.76601521,-0.76602101,0.76602101,283.38898,-774.97902)"
       gradientUnits="userSpaceOnUse"
       id="radialGradient4428-3"
       xlink:href="#linearGradient6147-1-1-0-5-6-5-3-6-3-8"
       inkscape:collect="always" />
    <linearGradient
       id="linearGradient6147-1-1-0-5-6-5-3-6-3-8">
      <stop
         id="stop6149-6-3-3-1-1-4-3-6-0-8"
         offset="0"
         style="stop-color:#5f8dd3;stop-opacity:1;" />
      <stop
         id="stop6151-5-0-36-1-5-3-3-4-7-5"
         offset="1"
         style="stop-color:#162d50;stop-opacity:1;" />
    </linearGradient>
    <radialGradient
       r="57.480274"
       fy="477.45059"
       fx="1027.8583"
       cy="477.45059"
       cx="1027.8583"
       spreadMethod="pad"
       gradientTransform="matrix(0.68941368,0.68941368,-0.68941893,0.68941893,199.77384,-532.32858)"
       gradientUnits="userSpaceOnUse"
       id="radialGradient4430-7"
       xlink:href="#linearGradient6147-1-1-5-3-1-8-4-0-6-8-2"
       inkscape:collect="always" />
    <linearGradient
       id="linearGradient6147-1-1-5-3-1-8-4-0-6-8-2">
      <stop
         id="stop6149-6-3-5-0-7-1-9-4-2-6-0"
         offset="0"
         style="stop-color:#5f8dd3;stop-opacity:1;" />
      <stop
         id="stop6151-5-0-3-0-2-3-5-7-8-8-4"
         offset="1"
         style="stop-color:#162d50;stop-opacity:1;" />
    </linearGradient>
    <clipPath
       id="clipPath3538"
       clipPathUnits="userSpaceOnUse">
      <rect
         y="476.25256"
         x="230.04202"
         height="76.848099"
         width="353.09943"
         id="rect3540"
         style="opacity:0.4813084;fill:#000000;fill-opacity:1;stroke:none" />
    </clipPath>
    <filter
       style="color-interpolation-filters:sRGB"
       y="-0.25"
       x="-0.25"
       height="1.5"
       width="1.5"
       inkscape:label="Drop shadow"
       id="filter8554-99-02-3-7">
      <feGaussianBlur
         result="blur"
         stdDeviation="1"
         in="SourceAlpha"
         id="feGaussianBlur8556-3-0-6-7-5" />
      <feColorMatrix
         values="-1 0 0 0 1 0 -1 0 0 1 0 0 -1 0 1 0 0 0 0.5 0 "
         type="matrix"
         result="bluralpha"
         id="feColorMatrix8558-6-1-1-3-5" />
      <feOffset
         result="offsetBlur"
         dy="-1"
         dx="1"
         in="bluralpha"
         id="feOffset8560-0-9-0-9-9" />
      <feMerge
         id="feMerge8562-5-62-6-0">
        <feMergeNode
           in="offsetBlur"
           id="feMergeNode8564-0-1-3-3-1" />
        <feMergeNode
           in="SourceGraphic"
           id="feMergeNode8566-2-20-2-9" />
      </feMerge>
    </filter>
    <linearGradient
       id="linearGradient6147-1-1-4-4-7-0-6">
      <stop
         id="stop6149-6-3-9-3-3-6-7"
         offset="0"
         style="stop-color:#5f8dd3;stop-opacity:1;" />
      <stop
         id="stop6151-5-0-9-5-1-1-4"
         offset="1"
         style="stop-color:#162d50;stop-opacity:1;" />
    </linearGradient>
    <linearGradient
       id="linearGradient6147-1-1-5-94-7-1-5-3">
      <stop
         id="stop6149-6-3-5-2-4-9-5-2"
         offset="0"
         style="stop-color:#5f8dd3;stop-opacity:1;" />
      <stop
         id="stop6151-5-0-3-06-3-0-4-0"
         offset="1"
         style="stop-color:#162d50;stop-opacity:1;" />
    </linearGradient>
    <linearGradient
       id="linearGradient6147-1-1-0-9-4-5-7-2">
      <stop
         id="stop6149-6-3-3-5-6-6-6-2"
         offset="0"
         style="stop-color:#5f8dd3;stop-opacity:1;" />
      <stop
         id="stop6151-5-0-36-6-9-7-5-6"
         offset="1"
         style="stop-color:#162d50;stop-opacity:1;" />
    </linearGradient>
    <linearGradient
       id="linearGradient6147-1-1-5-3-14-2-7-6-8-6">
      <stop
         id="stop6149-6-3-5-0-3-2-4-9-1"
         offset="0"
         style="stop-color:#5f8dd3;stop-opacity:1;" />
      <stop
         id="stop6151-5-0-3-0-7-6-0-3-4-1"
         offset="1"
         style="stop-color:#162d50;stop-opacity:1;" />
    </linearGradient>
    <linearGradient
       id="linearGradient6147-1-1-0-5-7-1-64-7-8">
      <stop
         id="stop6149-6-3-3-1-3-2-7-4-7-9"
         offset="0"
         style="stop-color:#5f8dd3;stop-opacity:1;" />
      <stop
         id="stop6151-5-0-36-1-39-8-4-5-3"
         offset="1"
         style="stop-color:#162d50;stop-opacity:1;" />
    </linearGradient>
    <linearGradient
       id="linearGradient6147-1-1-0-2-4-9-8-2-5-4">
      <stop
         id="stop6149-6-3-3-4-4-28-5-5-0-7"
         offset="0"
         style="stop-color:#5f8dd3;stop-opacity:1;" />
      <stop
         id="stop6151-5-0-36-9-49-8-8-4-2"
         offset="1"
         style="stop-color:#162d50;stop-opacity:1;" />
    </linearGradient>
    <linearGradient
       id="linearGradient6147-1-1-5-3-1-3-6-2-7-2">
      <stop
         id="stop6149-6-3-5-0-7-8-8-6-4-7"
         offset="0"
         style="stop-color:#5f8dd3;stop-opacity:1;" />
      <stop
         id="stop6151-5-0-3-0-2-32-3-0-4-7-2"
         offset="1"
         style="stop-color:#162d50;stop-opacity:1;" />
    </linearGradient>
    <linearGradient
       id="linearGradient6147-1-1-0-5-6-5-3-6-3-4">
      <stop
         id="stop6149-6-3-3-1-1-4-3-6-0-1"
         offset="0"
         style="stop-color:#5f8dd3;stop-opacity:1;" />
      <stop
         id="stop6151-5-0-36-1-5-3-3-4-7-7"
         offset="1"
         style="stop-color:#162d50;stop-opacity:1;" />
    </linearGradient>
    <linearGradient
       id="linearGradient6147-1-1-5-3-1-8-4-0-6-8-4-1">
      <stop
         id="stop6149-6-3-5-0-7-1-9-4-2-6-8-7"
         offset="0"
         style="stop-color:#5f8dd3;stop-opacity:1;" />
      <stop
         id="stop6151-5-0-3-0-2-3-5-7-8-8-0"
         offset="1"
         style="stop-color:#162d50;stop-opacity:1;" />
    </linearGradient>
    <filter
       style="color-interpolation-filters:sRGB"
       id="filter2673-1-5"
       inkscape:label="Metal Casting"
       inkscape:menu="Bevels"
       inkscape:menu-tooltip="Smooth drop-like bevel with metallic finish">
      <feColorMatrix
         id="feColorMatrix2675-7-2"
         values="0.37"
         type="saturate"
         in="SourceGraphic"
         result="result1" />
      <feGaussianBlur
         id="feGaussianBlur2677-8-7"
         stdDeviation="7"
         in="SourceAlpha" />
      <feSpecularLighting
         id="feSpecularLighting2679-9-6"
         specularExponent="8"
         specularConstant="3.88000011"
         surfaceScale="10"
         result="result2">
        <feDistantLight
           id="feDistantLight2681-8-5"
           azimuth="225"
           elevation="17" />
      </feSpecularLighting>
      <feComposite
         id="feComposite2683-7-9"
         in2="result1"
         operator="atop" />
    </filter>
  </defs>
  <sodipodi:namedview
     id="base"
     pagecolor="#ffffff"
     bordercolor="#666666"
     borderopacity="1.0"
     inkscape:pageopacity="0.0"
     inkscape:pageshadow="2"
     inkscape:zoom="0.84852814"
     inkscape:cx="1227.8954"
     inkscape:cy="-74.693422"
     inkscape:current-layer="layer1"
     inkscape:document-units="px"
     showgrid="false"
     inkscape:window-width="1440"
     inkscape:window-height="845"
     inkscape:window-x="0"
     inkscape:window-y="28"
     inkscape:window-maximized="1"
     showguides="true"
     inkscape:guide-bbox="true"
     inkscape:snap-bbox="true"
     inkscape:bbox-paths="true"
     inkscape:snap-bbox-edge-midpoints="true"
     inkscape:bbox-nodes="true"
     inkscape:snap-bbox-midpoints="true"
     inkscape:snap-page="true">
    <sodipodi:guide
       orientation="1,0"
       position="1600,0"
       id="guide83"
       inkscape:locked="false" />
    <sodipodi:guide
       orientation="0,1"
       position="1605,0"
       id="guide85"
       inkscape:locked="false" />
    <sodipodi:guide
       orientation="0,1"
       position="1604.9999,-5"
       id="guide87"
       inkscape:locked="false" />
    <sodipodi:guide
       orientation="1,0"
       position="1605,-5"
       id="guide89"
       inkscape:locked="false" />
    <sodipodi:guide
       orientation="0,1"
       position="1604.9999,112"
       id="guide91"
       inkscape:locked="false" />
    <sodipodi:guide
       orientation="1,0"
       position="0,17.5"
       id="guide93"
       inkscape:locked="false" />
    <sodipodi:guide
       orientation="1,0"
       position="-5,107"
       id="guide95"
       inkscape:locked="false" />
    <sodipodi:guide
       orientation="0,1"
       position="1605,53.5"
       id="guide1757"
       inkscape:locked="false" />
  </sodipodi:namedview>
  <metadata
     id="metadata7657">
    <rdf:RDF>
      <cc:Work
         rdf:about="">
        <dc:format>image/svg+xml</dc:format>
        <dc:type
           rdf:resource="http://purl.org/dc/dcmitype/StillImage" />
        <dc:title></dc:title>
      </cc:Work>
    </rdf:RDF>
  </metadata>
  <g
     id="layer1"
     inkscape:label="Layer 1"
     inkscape:groupmode="layer"
     transform="translate(0,-1093)">
    <rect
       inkscape:export-ydpi="90"
       inkscape:export-xdpi="90"
       inkscape:export-filename="/home/se7en/kdmTemp1.png"
       style="fill:none;stroke:none"
       id="rect6011"
       width="1610"
       height="117"
       x="-5"
       y="1088" />
    <rect
       style="fill:#000000;fill-opacity:0.99171268"
       id="rect7464-8"
       width="5"
       height="5"
       x="1600"
       y="1200" />
    <g
       id="g3206"
       transform="matrix(1.1015883,0,0,1.1015883,809.62027,1097.4959)">
      <g
         id="g8175-0-0"
         style="fill:#162d50;filter:url(#filter8554-99-02-3-2)"
         transform="matrix(0.83882691,0,0,0.81692794,-712.08204,-780.31482)">
        <g
           style="fill:#162d50;fill-opacity:1"
           inkscape:export-ydpi="90"
           inkscape:export-xdpi="90"
           inkscape:export-filename="/home/xweber/src/siduction/artwork-newsid/candidates/document/ec-dots.png"
           id="g5199-50-5-8-3-5-9-5-7-6-0-6-6-3-4-0-2-3-24-8-0-1-1-3-6-9"
           transform="matrix(0.65596408,0,0,0.65596408,1303.3516,859.7596)">
          <path
             inkscape:connector-curvature="0"
             id="path3617-6-5-3-1-8-1-3-1-36-1-6-8-3-7-1-8-2-7-12-8-7-5-6-8-9"
             style="font-size:268.14126587px;font-style:normal;font-variant:normal;font-weight:normal;font-stretch:normal;line-height:125%;letter-spacing:0px;word-spacing:0px;fill:#162d50;fill-opacity:1;stroke:none;font-family:Axaxax;-inkscape-font-specification:Axaxax"
             d="m 180.33853,201.32472 q 10.66976,0 15.41187,2.37107 4.7421,2.37104 4.7421,7.62125 0,1.94764 -1.60893,2.79444 -1.52424,0.76213 -3.64127,0.76213 -2.20168,0 -3.81061,-0.9315 -1.60894,-0.93147 -1.60894,-2.62507 0,-0.76214 -1.86297,-1.60894 -1.86297,-0.8468 -6.68978,-0.8468 -3.21784,0 -5.16551,0.25403 -1.94763,0.25404 -3.0485,0.67744 -1.10084,0.33873 -1.43957,0.9315 -0.3387,0.50807 -0.3387,1.01617 0,0.67743 0.3387,1.2702 0.33873,0.59277 1.3549,1.01617 1.01617,0.33873 2.79444,0.59277 1.7783,0.16936 4.65744,0.16936 5.67361,0 9.56892,0.67744 3.89531,0.59277 6.26634,1.94764 2.37107,1.3549 3.38724,3.5566 1.01617,2.11701 1.01617,5.16551 0,2.28637 -1.43957,4.23404 -1.43957,1.86297 -4.14937,3.30254 -2.62507,1.35487 -6.35101,2.11701 -3.72598,0.76213 -8.21402,0.76213 -4.23404,0 -7.95998,-0.59277 -3.64127,-0.59276 -6.35105,-1.7783 -2.70977,-1.18553 -4.3187,-2.96381 -1.60894,-1.86297 -1.60894,-4.4034 0,-2.11701 1.60894,-3.21784 1.6936,-1.18554 3.97997,-1.18554 2.03234,0 3.55657,1.10084 1.52427,1.01617 1.52427,3.0485 0,0.67744 2.03234,1.35491 2.03234,0.67743 7.11315,0.67743 5.58894,0 7.79061,-0.8468 2.2864,-0.8468 2.2864,-2.28637 0,-0.76214 -0.42343,-1.3549 -0.4234,-0.59277 -1.52423,-1.01617 -1.10084,-0.4234 -2.96381,-0.59277 -1.86297,-0.25403 -4.74211,-0.25403 -4.40341,0 -8.04468,-0.59277 -3.55657,-0.67744 -6.18168,-1.94764 -2.5404,-1.3549 -3.97997,-3.30257 -1.3549,-2.03231 -1.3549,-4.82678 0,-2.28637 0.8468,-4.14934 0.8468,-1.86297 3.0485,-3.21787 2.20171,-1.3549 5.92765,-2.11701 Q 174.49556,201.32472 180.33853,201.32472 Z"
             inkscape:export-filename="/home/xweber/daten/siduction/text_plus_symbol_as_bit1.png"
             inkscape:export-xdpi="150"
             inkscape:export-ydpi="150" />
          <path
             inkscape:connector-curvature="0"
             id="path3619-5-0-8-8-4-4-7-6-0-7-2-3-9-7-5-4-6-4-8-1-2-9-4-7-4"
             style="font-size:268.14126587px;font-style:normal;font-variant:normal;font-weight:normal;font-stretch:normal;line-height:125%;letter-spacing:0px;word-spacing:0px;fill:#162d50;fill-opacity:1;stroke:none;font-family:Axaxax;-inkscape-font-specification:Axaxax"
             d="m 211.34486,190.23157 q 2.20167,0 3.72594,1.18553 1.60893,1.10084 1.60893,3.04851 l 0,1.86297 q 0,2.117 -1.60893,3.21784 -1.52427,1.10087 -3.72594,1.10087 -2.28641,0 -3.81064,-1.18554 -1.52424,-1.18553 -1.52424,-3.13317 l 0,-1.86297 q 0,-1.77831 1.43957,-2.96384 Q 208.88912,190.23157 211.34486,190.23157 z m 0,13.29485 q 2.20167,0 3.72594,1.10084 1.60893,1.10084 1.60893,3.21787 l 0,23.79525 q 0,2.03233 -1.60893,3.21784 -1.52427,1.10086 -3.72594,1.10086 -2.45574,0 -3.89531,-1.2702 -1.43957,-1.27023 -1.43957,-3.0485 l 0,-23.79525 q 0,-1.94767 1.52424,-3.13317 Q 209.05845,203.52642 211.34486,203.52642 Z"
             inkscape:export-filename="/home/xweber/daten/siduction/text_plus_symbol_as_bit1.png"
             inkscape:export-xdpi="150"
             inkscape:export-ydpi="150" />
          <path
             inkscape:connector-curvature="0"
             id="path3621-0-7-7-0-0-3-6-4-4-7-9-2-0-0-8-3-0-7-9-2-4-7-7-9-5"
             style="font-size:268.14126587px;font-style:normal;font-variant:normal;font-weight:normal;font-stretch:normal;line-height:125%;letter-spacing:0px;word-spacing:0px;fill:#162d50;fill-opacity:1;stroke:none;font-family:Axaxax;-inkscape-font-specification:Axaxax"
             d="m 256.46897,190.23157 q 2.45574,0 3.89531,1.2702 1.43957,1.18553 1.43957,2.96384 l 0,37.25943 q 0,4.23404 -5.25021,4.23404 l -14.98846,0 q -10.16166,0 -14.98846,-2.70977 -4.82678,-2.7098 -4.82678,-8.21401 l 0,-12.44806 q 0,-10.66975 18.46037,-10.66975 l 3.3872,0 q 2.54041,0 3.89531,1.2702 1.43957,1.18554 1.43957,2.96384 0,1.94764 -1.52424,3.13317 -1.52427,1.18554 -3.81064,1.18554 l -3.3872,0 q -7.79062,0 -7.79062,3.64124 l 0,8.97615 q 0,2.2017 2.20167,3.30254 2.20171,1.01617 7.02852,1.01617 l 9.48421,0 0,-32.94073 q 0,-1.94767 1.60894,-3.04851 Q 254.35193,190.23157 256.46897,190.23157 Z"
             inkscape:export-filename="/home/xweber/daten/siduction/text_plus_symbol_as_bit1.png"
             inkscape:export-xdpi="150"
             inkscape:export-ydpi="150" />
          <path
             inkscape:connector-curvature="0"
             id="path3623-8-3-3-1-8-6-9-9-4-8-7-3-4-7-0-1-6-5-3-2-1-0-9-0-1"
             style="font-size:268.14126587px;font-style:normal;font-variant:normal;font-weight:normal;font-stretch:normal;line-height:125%;letter-spacing:0px;word-spacing:0px;fill:#162d50;fill-opacity:1;stroke:none;font-family:Axaxax;-inkscape-font-specification:Axaxax"
             d="m 287.11275,235.95908 q -20.23867,0 -20.23867,-11.68592 l 0,-17.9523 q 0,-2.117 1.52427,-3.21784 1.6089,-1.18553 3.8106,-1.18553 2.11701,0 3.72595,1.18553 1.60893,1.10084 1.60893,3.21784 l 0,16.85143 q 0,4.23405 9.56892,4.23405 l 8.12931,0 0,-21.08548 q 0,-2.117 1.52427,-3.21784 1.60894,-1.18553 3.81061,-1.18553 2.11704,0 3.72597,1.18553 1.60891,1.10084 1.60891,3.21784 l 0,25.48888 q 0,4.14934 -5.33488,4.14934 L 287.11275,235.95908 Z"
             inkscape:export-filename="/home/xweber/daten/siduction/text_plus_symbol_as_bit1.png"
             inkscape:export-xdpi="150"
             inkscape:export-ydpi="150" />
          <path
             inkscape:connector-curvature="0"
             id="path3625-1-8-1-7-4-7-7-5-96-0-0-6-3-4-0-1-9-6-6-69-6-6-7-3-0"
             style="font-size:268.14126587px;font-style:normal;font-variant:normal;font-weight:normal;font-stretch:normal;line-height:125%;letter-spacing:0px;word-spacing:0px;fill:#162d50;fill-opacity:1;stroke:none;font-family:Axaxax;-inkscape-font-specification:Axaxax"
             d="m 330.96667,201.32472 q 20.40804,0 20.40804,10.83912 0,4.74211 -5.50425,4.74211 -5.08084,0 -5.08084,-3.81064 0,-3.30254 -9.06082,-3.30254 -10.07698,0 -10.07698,3.72594 l 0,11.77062 q 0,3.47191 8.72211,3.47191 10.41569,0 10.41569,-3.47191 0,-4.23404 5.08084,-4.23404 5.58891,0 5.58891,4.23404 0,11.26252 -20.32333,11.26252 -20.15398,0 -20.15398,-9.82295 l 0,-14.39569 Q 310.98206,201.32472 330.96667,201.32472 Z"
             inkscape:export-filename="/home/xweber/daten/siduction/text_plus_symbol_as_bit1.png"
             inkscape:export-xdpi="150"
             inkscape:export-ydpi="150" />
          <path
             inkscape:connector-curvature="0"
             id="path3627-2-2-0-9-2-6-2-3-6-8-3-2-3-5-0-1-6-5-80-1-5-2-2-3-3"
             style="font-size:268.14126587px;font-style:normal;font-variant:normal;font-weight:normal;font-stretch:normal;line-height:125%;letter-spacing:0px;word-spacing:0px;fill:#162d50;fill-opacity:1;stroke:none;font-family:Axaxax;-inkscape-font-specification:Axaxax"
             d="m 367.19575,201.32654 0.96223,-0.002 c 1.69361,-0.003 3.02028,0.4234 3.97998,1.2702 0.9597,0.8468 1.43957,1.86297 1.43957,3.04851 0,1.12907 -0.47987,2.117 -1.43957,2.9638 -0.9597,0.84684 -2.28668,1.30283 -3.97998,1.27024 l -0.96223,-0.0185 0.004,15.68442 c 0,1.3549 1.41134,2.03233 4.23404,2.03233 3.78238,0 5.67358,1.3549 5.67358,4.06468 0,2.87913 -1.7783,4.3187 -5.33487,4.3187 -10.16166,0 -15.2425,-2.738 -15.2425,-8.21401 l 0,-33.2539 c 0,-1.41133 0.5363,-2.48397 1.60894,-3.21787 1.07263,-0.7339 2.3146,-1.10083 3.72594,-1.10083 1.4678,0 2.70977,0.36693 3.72594,1.10083 C 366.66345,192.00704 367.19975,193.07968 367.19975,194.49101 Z"
             sodipodi:nodetypes="csssssccssssscsccc"
             inkscape:export-filename="/home/xweber/daten/siduction/text_plus_symbol_as_bit1.png"
             inkscape:export-xdpi="150"
             inkscape:export-ydpi="150" />
          <path
             inkscape:connector-curvature="0"
             id="path3629-26-3-0-1-5-9-6-5-4-9-7-2-4-3-4-9-8-7-2-0-7-8-2-3-7"
             style="font-size:268.14126587px;font-style:normal;font-variant:normal;font-weight:normal;font-stretch:normal;line-height:125%;letter-spacing:0px;word-spacing:0px;fill:#162d50;fill-opacity:1;stroke:none;font-family:Axaxax;-inkscape-font-specification:Axaxax"
             d="m 387.51199,190.23157 q 2.20171,0 3.72594,1.18553 1.60894,1.10084 1.60894,3.04851 l 0,1.86297 q 0,2.117 -1.60894,3.21784 -1.52423,1.10087 -3.72594,1.10087 -2.28637,0 -3.81064,-1.18554 -1.52423,-1.18553 -1.52423,-3.13317 l 0,-1.86297 q 0,-1.77831 1.43957,-2.96384 Q 385.05626,190.23157 387.51199,190.23157 z m 0,13.29485 q 2.20171,0 3.72594,1.10084 1.60894,1.10084 1.60894,3.21787 l 0,23.79525 q 0,2.03233 -1.60894,3.21784 -1.52423,1.10086 -3.72594,1.10086 -2.45573,0 -3.8953,-1.2702 -1.43957,-1.27023 -1.43957,-3.0485 l 0,-23.79525 q 0,-1.94767 1.52423,-3.13317 Q 385.22562,203.52642 387.51199,203.52642 Z"
             inkscape:export-filename="/home/xweber/daten/siduction/text_plus_symbol_as_bit1.png"
             inkscape:export-xdpi="150"
             inkscape:export-ydpi="150" />
          <path
             inkscape:connector-curvature="0"
             id="path3631-9-0-5-0-4-7-4-1-1-7-2-4-2-0-7-0-0-69-10-42-8-9-1-7-8"
             style="font-size:268.14126587px;font-style:normal;font-variant:normal;font-weight:normal;font-stretch:normal;line-height:125%;letter-spacing:0px;word-spacing:0px;fill:#162d50;fill-opacity:1;stroke:none;font-family:Axaxax;-inkscape-font-specification:Axaxax"
             d="m 418.32506,201.32472 q 20.15397,0 20.15397,11.60125 l 0,12.02463 q 0,11.60125 -20.15397,11.60125 -20.40801,0 -20.40801,-11.60125 l 0,-12.02463 Q 397.91705,201.32472 418.32506,201.32472 z m 0,8.46805 q -9.65359,0 -9.65359,3.1332 l 0,12.02463 q 0,3.13317 9.65359,3.13317 9.48421,0 9.48421,-3.13317 l 0,-12.02463 Q 427.80927,209.79277 418.32506,209.79277 Z"
             inkscape:export-filename="/home/xweber/daten/siduction/text_plus_symbol_as_bit1.png"
             inkscape:export-xdpi="150"
             inkscape:export-ydpi="150" />
          <path
             inkscape:connector-curvature="0"
             id="path3633-1-7-0-3-2-6-0-1-9-8-3-7-4-7-5-0-8-7-5-74-5-5-6-3-8"
             style="font-size:268.14126587px;font-style:normal;font-variant:normal;font-weight:normal;font-stretch:normal;line-height:125%;letter-spacing:0px;word-spacing:0px;fill:#162d50;fill-opacity:1;stroke:none;font-family:Axaxax;-inkscape-font-specification:Axaxax"
             d="m 463.7879,201.91749 q 20.23867,0 20.23867,11.68592 l 0,17.95227 q 0,2.11703 -1.60894,3.30254 -1.52424,1.10086 -3.72594,1.10086 -2.117,0 -3.72594,-1.10086 -1.60894,-1.18551 -1.60894,-3.30254 l 0,-16.85143 q 0,-4.23401 -9.56891,-4.23401 l -9.56889,0 0,21.08544 q 0,2.11703 -1.60894,3.30254 -1.52426,1.10086 -3.72594,1.10086 -2.11703,0 -3.72597,-1.10086 -1.6089,-1.18551 -1.6089,-3.30254 l 0,-25.48885 q 0,-4.14934 5.33487,-4.14934 L 463.7879,201.91749 Z"
             inkscape:export-filename="/home/xweber/daten/siduction/text_plus_symbol_as_bit1.png"
             inkscape:export-xdpi="150"
             inkscape:export-ydpi="150" />
        </g>
        <path
           transform="matrix(0.37247639,0,0,0.37247639,1446.1167,961.58516)"
           sodipodi:nodetypes="scsscscsscs"
           inkscape:export-ydpi="90"
           inkscape:export-xdpi="90"
           inkscape:export-filename="/home/xweber/src/siduction/artwork-newsid/candidates/document/ec-dots.png"
           d="m -11.288664,60.996951 c 2.6887001,0 4.9636501,0.7238 6.8250401,2.1715 1.96481,1.3444 2.94726,3.2058 2.94726,5.5842 l 0,3.4125 c 0,2.5853 -0.98245,4.5501 -2.94726,5.8944 -1.86139,1.3443 -4.13634,2.0165 -6.8250401,2.0165 -2.79202,0 -5.11876,-0.7239 -6.98015,-2.1716 -1.86138,-1.4478 -2.79204,-3.3608 -2.79204,-5.7393 l 0,-3.4125 c 0,-2.1717 0.87893,-3.9813 2.63691,-5.4291 C -16.665984,61.772451 -14.287514,60.996951 -11.288664,60.996951 Z"
           style="font-size:268.14126587px;font-style:normal;font-variant:normal;font-weight:normal;font-stretch:normal;line-height:125%;letter-spacing:0px;word-spacing:0px;fill:#162d50;fill-opacity:1;stroke:none;font-family:Axaxax;-inkscape-font-specification:Axaxax"
           id="path3629-26-8-31-2-11-0-9-0-3-2-6"
           inkscape:connector-curvature="0" />
      </g>
      <g
         transform="matrix(0.05822696,0,0,0.05670685,624.7519,6.523546)"
         style="display:inline"
         id="g6718-5-6-0">
        <path
           inkscape:connector-curvature="0"
           id="path4680-7-52-4"
           d="m 1182.5051,525.9733 c 0,-47.17499 -38.2417,-85.4166 -85.4166,-85.41659 -47.1758,9.8e-4 -85.4174,38.24261 -85.4175,85.41746 0,47.17489 38.2417,85.4165 85.4166,85.41659 C 1144.2625,611.39068 1182.5053,573.1479 1182.5051,525.9733 Z"
           style="fill:url(#radialGradient4414-6);fill-opacity:1;fill-rule:nonzero;stroke:none;display:inline" />
        <path
           id="path4680-8-3-6-6"
           d="m 1038.8171,661.11962 c 0,-42.45748 -34.4175,-76.8749 -76.87491,-76.87492 -42.45823,8.1e-4 -76.8757,34.41829 -76.8757,76.87571 3e-5,42.45743 34.41745,76.87486 76.87492,76.87491 C 1004.3988,737.9953 1038.8173,703.5768 1038.8171,661.11962 Z"
           style="fill:url(#radialGradient4416-0);fill-opacity:1;fill-rule:nonzero;stroke:none;display:inline"
           inkscape:connector-curvature="0" />
        <path
           id="path4680-87-9-5-7"
           d="m 1041.8584,393.8684 c 10e-5,-42.4574 -34.4174,-76.87487 -76.87485,-76.87489 -42.45824,8.2e-4 -76.87571,34.41829 -76.87571,76.87571 4e-5,42.45742 34.41751,76.87489 76.87489,76.87489 C 1007.44,470.74394 1041.8585,436.32544 1041.8584,393.8684 Z"
           style="fill:url(#radialGradient4418-7);fill-opacity:1;fill-rule:nonzero;stroke:none;display:inline"
           inkscape:connector-curvature="0" />
        <path
           id="path4680-8-4-0-87-6"
           d="m 899.0246,529.01469 c -2e-5,-38.21171 -30.97571,-69.18741 -69.18742,-69.18743 -38.2124,7.3e-4 -69.18813,30.97646 -69.18813,69.18813 3e-5,38.2117 30.97572,69.1874 69.18743,69.18742 C 868.0481,598.20276 899.02474,567.22611 899.0246,529.01469 Z"
           style="fill:url(#radialGradient4420-0);fill-opacity:1;fill-rule:nonzero;stroke:none;display:inline"
           inkscape:connector-curvature="0" />
        <path
           id="path4680-87-5-7-9-0"
           d="m 904.12658,263.82411 c -10e-6,-38.2117 -30.97571,-69.18741 -69.18741,-69.18741 -38.21241,7.2e-4 -69.18814,30.97646 -69.18814,69.18814 2e-5,38.21168 30.97572,69.18739 69.18741,69.18741 C 873.15007,333.01219 904.12672,302.03554 904.12658,263.82411 Z"
           style="fill:url(#radialGradient4422-1);fill-opacity:1;fill-rule:nonzero;stroke:none;display:inline"
           inkscape:connector-curvature="0" />
        <path
           id="path4680-87-6-2-6-9"
           d="m 905.87411,786.37515 c -3e-5,-38.21171 -30.97572,-69.1874 -69.18743,-69.18742 -38.2124,7.3e-4 -69.18813,30.97646 -69.18814,69.18814 4e-5,38.21169 30.97573,69.18738 69.18743,69.18743 C 874.89759,855.56323 905.87425,824.58658 905.87411,786.37515 Z"
           style="fill:url(#radialGradient4424-0);fill-opacity:1;fill-rule:nonzero;stroke:none;display:inline"
           inkscape:connector-curvature="0" />
        <path
           id="path4680-8-4-2-7-0-7"
           d="m 766.85033,654.2702 c -10e-6,-34.39054 -27.87814,-62.26867 -62.26867,-62.26867 -34.39116,6.5e-4 -62.26931,27.8788 -62.26931,62.2693 10e-6,34.39053 27.87814,62.26866 62.26867,62.26868 C 738.97148,716.53946 766.85046,688.66048 766.85033,654.2702 Z"
           style="fill:url(#radialGradient4426-1);fill-opacity:1;fill-rule:nonzero;stroke:none;display:inline"
           inkscape:connector-curvature="0" />
        <path
           id="path4680-87-5-9-2-4-5"
           d="m 762.06153,398.97041 c -3e-5,-34.39053 -27.87816,-62.26866 -62.26867,-62.26867 -34.39118,6.6e-4 -62.26933,27.87881 -62.26932,62.26932 0,34.39052 27.87814,62.26865 62.26867,62.26868 C 734.18267,461.23969 762.06166,433.36069 762.06153,398.97041 Z"
           style="fill:url(#radialGradient4428-3);fill-opacity:1;fill-rule:nonzero;stroke:none;display:inline"
           inkscape:connector-curvature="0" />
        <path
           id="path4680-8-4-2-6-9-1-9"
           d="m 630.57914,524.22594 c -1e-5,-30.95148 -25.09033,-56.0418 -56.04182,-56.04181 -30.95204,5.8e-4 -56.04238,25.09092 -56.04238,56.04239 2e-5,30.95147 25.09034,56.04179 56.04181,56.04181 C 605.48817,580.26828 630.57926,555.17719 630.57914,524.22594 Z"
           style="fill:url(#radialGradient4430-7);fill-opacity:1;fill-rule:nonzero;stroke:none;display:inline"
           inkscape:connector-curvature="0" />
      </g>
      <flowRoot
         xml:space="preserve"
         id="flowRoot4824-8"
         style="font-style:normal;font-weight:bold;line-height:0.01%;font-family:sans-serif;-inkscape-font-specification:'Sans Bold';letter-spacing:0px;word-spacing:0px;fill:#6f7c91;fill-opacity:1;stroke:none"
         transform="matrix(0.66745236,0,0,0.6500274,451.97737,126.798)"
         inkscape:export-filename="/home/coruja/siduction/artwork/coruja.web.header.png"
         inkscape:export-xdpi="89"
         inkscape:export-ydpi="89"><flowRegion
           id="flowRegion4826-1"
           style="font-family:sans-serif"><rect
             id="rect4828-9"
             width="255"
             height="25"
             x="33"
             y="-107"
             style="font-style:normal;font-weight:bold;font-family:sans-serif;-inkscape-font-specification:'Sans Bold';fill:#6f7c91" /></flowRegion><flowPara
           style="font-style:normal;font-variant:normal;font-weight:bold;font-stretch:normal;font-size:18px;line-height:1.25;font-family:'DejaVu Sans';-inkscape-font-specification:'DejaVu Sans Bold'"
           id="flowPara4830-9">the community based OS</flowPara></flowRoot>      <path
         style="fill:none;stroke:#ff6600;stroke-width:2.63505197;stroke-linecap:butt;stroke-linejoin:miter;stroke-miterlimit:4;stroke-opacity:1;stroke-dasharray:none"
         d="m -739.57559,54.927476 1401.08829,0.0207 12.38154,11.0297 27.52122,-28.36542 20.61042,-0.0635"
         id="path3876-1-0"
         inkscape:connector-curvature="0"
         sodipodi:nodetypes="ccccc"
         inkscape:export-filename="/home/coruja/siduction/artwork/coruja.web.header.png"
         inkscape:export-xdpi="89"
         inkscape:export-ydpi="89" />
    </g>
    <g
       transform="translate(-262.14545,261.15345)"
       id="layer1-4"
       inkscape:label="Layer 1">
      <g
         transform="matrix(0.71176202,0,0,0.69059463,-161.19052,664.92927)"
         clip-path="url(#clipPath3538)"
         id="g3506">
        <g
           inkscape:export-ydpi="89"
           inkscape:export-xdpi="89"
           inkscape:export-filename="/home/coruja/siduction/artwork/coruja.web.header.png"
           id="g6886-9-9"
           style="display:inline"
           transform="matrix(1.1785216,0,0,1.1829341,-1393.5471,-667.09574)" />
      </g>
    </g>
  </g>
</svg>
