<?xml version="1.0" encoding="UTF-8" standalone="no"?>
<svg
   xmlns:dc="http://purl.org/dc/elements/1.1/"
   xmlns:cc="http://creativecommons.org/ns#"
   xmlns:rdf="http://www.w3.org/1999/02/22-rdf-syntax-ns#"
   xmlns:svg="http://www.w3.org/2000/svg"
   xmlns="http://www.w3.org/2000/svg"
   xmlns:sodipodi="http://sodipodi.sourceforge.net/DTD/sodipodi-0.dtd"
   xmlns:inkscape="http://www.inkscape.org/namespaces/inkscape"
   viewBox="0 0 22 22"
   version="1.1"
   id="svg6"
   sodipodi:docname="hint.svg"
   inkscape:version="0.92.3 (2405546, 2018-03-11)">
  <metadata
     id="metadata10">
    <rdf:RDF>
      <cc:Work
         rdf:about="">
        <dc:format>image/svg+xml</dc:format>
        <dc:type
           rdf:resource="http://purl.org/dc/dcmitype/StillImage" />
        <dc:title></dc:title>
      </cc:Work>
    </rdf:RDF>
  </metadata>
  <sodipodi:namedview
     pagecolor="#6e8186"
     bordercolor="#666666"
     borderopacity="1"
     objecttolerance="10"
     gridtolerance="10"
     guidetolerance="10"
     inkscape:pageopacity="0"
     inkscape:pageshadow="2"
     inkscape:window-width="1440"
     inkscape:window-height="844"
     id="namedview8"
     showgrid="false"
     inkscape:zoom="10.727273"
     inkscape:cx="0.41949153"
     inkscape:cy="11"
     inkscape:window-x="0"
     inkscape:window-y="32"
     inkscape:window-maximized="1"
     inkscape:current-layer="svg6" />
  <defs
     id="defs3051">
    <style
       type="text/css"
       id="current-color-scheme">
      .ColorScheme-Text {
        color:#4d4d4d;
      }
      </style>
  </defs>
  <path
     inkscape:connector-curvature="0"
     style="color:#4d4d4d;fill:#ffffff;fill-opacity:1;stroke:none"
     d="M 19.126044,3.0000004 3.8330757,18.292969 4.5401067,19 19.833075,3.7070314 Z m -7.292969,3 A 10,9.9999781 0 0 0 3.1201847,11.119141 c 0.179261,0.3011 0.433889,0.549503 0.740234,0.720703 A 9,8.99998 0 0 1 11.833075,7.0000004 4,4 0 0 0 7.8330757,11 a 4,4 0 0 0 0.357422,1.642578 l 0.773437,-0.773437 A 3,3 0 0 1 8.8330757,11 3,3 0 0 1 11.833075,8.0000004 3,3 0 0 1 12.702216,8.1308594 L 13.4737,7.3593754 a 4,4 0 0 0 -1.296875,-0.341797 9,8.99998 0 0 1 1.453125,0.185547 l 0.84375,-0.84375 a 10,9.9999781 0 0 0 -2.640625,-0.359375 z m 5.404297,1.595703 -0.728516,0.728516 a 9,8.99998 0 0 1 3.298828,3.5136716 c 0.308133,-0.1728 0.565109,-0.422463 0.744141,-0.726563 A 10,9.9999781 0 0 0 17.237372,7.5957034 Z m -5.404297,1.404297 A 2,2 0 0 0 9.8330758,11 Z m 3.642578,0.357422 -0.773437,0.7734376 A 3,3 0 0 1 14.833075,11 a 3,3 0 0 1 -3,3 3,3 0 0 1 -0.86914,-0.130859 l -0.773437,0.773437 A 4,4 0 0 0 11.833075,15 a 4,4 0 0 0 4,-4 4,4 0 0 0 -0.357422,-1.6425776 z M 13.833075,11 l -2,2 a 2,2 0 0 0 2,-2 z M 1.8330757,13 c -0.666667,6 -0.333334,3 0,0 z"
     class="ColorScheme-Text"
     id="path4-3" />
</svg>
