<?xml version="1.0" encoding="UTF-8" standalone="no"?>
<!-- Created with Inkscape (http://www.inkscape.org/) -->

<svg
   xmlns:dc="http://purl.org/dc/elements/1.1/"
   xmlns:cc="http://creativecommons.org/ns#"
   xmlns:rdf="http://www.w3.org/1999/02/22-rdf-syntax-ns#"
   xmlns:svg="http://www.w3.org/2000/svg"
   xmlns="http://www.w3.org/2000/svg"
   xmlns:sodipodi="http://sodipodi.sourceforge.net/DTD/sodipodi-0.dtd"
   xmlns:inkscape="http://www.inkscape.org/namespaces/inkscape"
   version="1.1"
   id="svg2"
   inkscape:version="0.91+devel r"
   width="1900"
   height="1400"
   viewBox="0 0 1900 1400"
   sodipodi:docname="poetry.svg"
   inkscape:export-filename="/home/hhl/github/hhl/source/poetry.png"
   inkscape:export-xdpi="96"
   inkscape:export-ydpi="96">
  <metadata
     id="metadata8">
    <rdf:RDF>
      <cc:Work
         rdf:about="">
        <dc:format>image/svg+xml</dc:format>
        <dc:type
           rdf:resource="http://purl.org/dc/dcmitype/StillImage" />
        <dc:title />
      </cc:Work>
    </rdf:RDF>
  </metadata>
  <defs
     id="defs6" />
  <sodipodi:namedview
     pagecolor="#ffffff"
     bordercolor="#ff6666"
     borderopacity="1"
     objecttolerance="10"
     gridtolerance="10"
     guidetolerance="10"
     inkscape:pageopacity="0"
     inkscape:pageshadow="2"
     inkscape:window-width="1436"
     inkscape:window-height="779"
     inkscape:document-units="px"
     id="namedview4"
     showgrid="false"
     borderlayer="true"
     inkscape:zoom="0.17576496"
     inkscape:cx="183.10157"
     inkscape:cy="913.52817"
     inkscape:window-x="0"
     inkscape:window-y="33"
     inkscape:window-maximized="0"
     inkscape:current-layer="svg2" />
  <rect
     y="-51.236549"
     x="-56.406105"
     height="1509.9105"
     width="2065.1982"
     id="rect3465"
     style="fill:#000000;stroke-width:1.99347711" />
  <path
     style="fill:#ffffff;stroke-width:0.17779426"
     d=""
     id="path3372"
     inkscape:connector-curvature="0" />
  <g
     id="g22"
     transform="translate(82)">
    <path
       style="fill:#ffffff;stroke-width:0.88767755"
       d="m 340.96894,786.34337 c 1.19862,-1.59304 6.8936,-9.51392 12.65548,-17.60168 11.30178,-15.86409 14.22649,-22.18968 18.13109,-39.21384 3.9191,-17.08764 5.87369,-114.68527 4.60494,-229.93592 l -0.94679,-86.00314 -3.21595,-19.49306 c -1.76877,-10.72108 -3.05728,-19.65278 -2.86333,-19.84842 0.78336,-0.78954 10.99999,10.08917 14.54849,18.99907 3.45341,27.18639 2.72259,58.73236 2.78296,78.1126 0.42341,115.44088 0.71759,231.53453 -3.9782,266.9834 0.1402,8.26055 -3.26974,13.20862 -7.48022,19.8955 -8.06732,12.81211 -11.54735,16.97621 -18.16607,21.73701 -4.70767,3.38625 -15.92912,9.26492 -17.68527,9.26492 -0.31153,0 0.41426,-1.3034 1.61287,-2.89644 z"
       id="path3463"
       inkscape:connector-curvature="0"
       sodipodi:nodetypes="cssscccccccssc" />
    <path
       sodipodi:nodetypes="ccscccccccsc"
       inkscape:connector-curvature="0"
       id="path3427"
       d="m 172.68269,606.72846 c 0.53807,-0.48908 4.43582,-3.70332 8.66167,-7.14266 37.49596,-30.51738 73.90234,-66.39077 94.13712,-92.75915 12.99292,-16.93139 23.33641,-35.17613 27.84335,-49.11273 2.01026,-6.21618 3.63887,-14.36349 4.42506,-22.13652 0.49517,-4.89587 4.49709,0.062 5.89802,7.30631 4.34877,12.6813 3.17502,25.96329 -0.3299,36.94024 -3.56817,11.50942 -10.74275,24.12534 -21.5717,37.93192 -10.16139,12.95543 -13.82277,16.44231 -28.22352,26.87869 -7.53302,5.45916 -18.35652,13.3827 -24.05221,17.60798 -25.96271,19.25992 -44.65052,32.16857 -59.22467,40.90961 -7.15219,4.28955 -9.64456,5.468 -7.56322,3.57631 z"
       style="fill:#ffffff;stroke-width:0.66811746" />
    <path
       sodipodi:nodetypes="cccccccsccc"
       inkscape:connector-curvature="0"
       id="path3431"
       d="m 328.331,566.24082 c -5.37264,-0.79929 -17.90631,-3.98629 -20.88975,-5.31167 -3.43149,-1.52436 -8.88916,-7.23341 -11.57741,-12.1103 -1.27766,-2.31801 -4.46312,-6.9388 -7.07882,-10.2686 -2.6157,-3.3298 -4.56653,-6.37983 -4.33518,-6.77778 0.23133,-0.39795 1.58202,-1.35356 3.00152,-2.12354 l 2.58088,-1.39997 24.21358,18.10288 c 13.30713,9.94881 27.05869,15.15902 28.06022,15.94853 2.6675,2.10288 6.47964,2.2297 5.38395,3.39707 -1.03094,1.09841 -13.31164,1.44318 -19.35899,0.54338 z"
       style="fill:#ffffff;stroke-width:0.69625908" />
  </g>
</svg>
