<?xml version="1.0" encoding="UTF-8" standalone="no"?>
<!-- Created with Inkscape (http://www.inkscape.org/) -->

<svg
   xmlns:dc="http://purl.org/dc/elements/1.1/"
   xmlns:cc="http://creativecommons.org/ns#"
   xmlns:rdf="http://www.w3.org/1999/02/22-rdf-syntax-ns#"
   xmlns:svg="http://www.w3.org/2000/svg"
   xmlns="http://www.w3.org/2000/svg"
   xmlns:sodipodi="http://sodipodi.sourceforge.net/DTD/sodipodi-0.dtd"
   xmlns:inkscape="http://www.inkscape.org/namespaces/inkscape"
   width="64"
   height="64"
   viewBox="0 0 16.933333 16.933333"
   version="1.1"
   id="svg8"
   inkscape:version="0.92.3 (2405546, 2018-03-11)"
   sodipodi:docname="show_pw.svg"
   inkscape:export-filename="/kammer/bastelecke/github/hhl-git/sddm-theme-hhl/source-images/show_pw.png"
   inkscape:export-xdpi="96"
   inkscape:export-ydpi="96">
  <defs
     id="defs2" />
  <sodipodi:namedview
     id="base"
     pagecolor="#462727"
     bordercolor="#666666"
     borderopacity="1.0"
     inkscape:pageopacity="0"
     inkscape:pageshadow="2"
     inkscape:zoom="3.959798"
     inkscape:cx="47.645274"
     inkscape:cy="49.748323"
     inkscape:document-units="mm"
     inkscape:current-layer="layer1"
     showgrid="false"
     inkscape:window-width="1440"
     inkscape:window-height="844"
     inkscape:window-x="0"
     inkscape:window-y="32"
     inkscape:window-maximized="1"
     units="px" />
  <metadata
     id="metadata5">
    <rdf:RDF>
      <cc:Work
         rdf:about="">
        <dc:format>image/svg+xml</dc:format>
        <dc:type
           rdf:resource="http://purl.org/dc/dcmitype/StillImage" />
        <dc:title />
      </cc:Work>
    </rdf:RDF>
  </metadata>
  <g
     inkscape:label="Ebene 1"
     inkscape:groupmode="layer"
     id="layer1"
     transform="translate(0,-280.06667)">
    <path
       inkscape:connector-curvature="0"
       id="path4161"
       d="m 33.621421,269.55721 a 5.7777126,5.7777087 0 0 1 -5.777714,5.7777 5.7777126,5.7777087 0 0 1 -5.777712,-5.7777 5.7777126,5.7777087 0 0 1 5.777712,-5.77772 5.7777126,5.7777087 0 0 1 5.777714,5.77772 z"
       style="opacity:1;fill:none;fill-opacity:1;stroke:#ffffff;stroke-width:0.35082418;stroke-linecap:round;stroke-linejoin:round;stroke-miterlimit:4;stroke-dasharray:none;stroke-opacity:1" />
    <path
       style="opacity:1;fill:#ffffff;fill-opacity:1;stroke:#ffffff;stroke-width:0.32273644;stroke-linecap:square;stroke-linejoin:miter;stroke-miterlimit:4;stroke-dasharray:none;stroke-opacity:1"
       inkscape:transform-center-x="-1.4092255"
       inkscape:transform-center-y="1.6107567e-06"
       d="m 24.105232,272.45645 v -5.7985 l 8.455361,2.89926 z"
       id="path4290"
       inkscape:connector-curvature="0"
       sodipodi:nodetypes="cccc" />
    <path
       sodipodi:type="star"
       style="opacity:1;fill:none;fill-opacity:1;stroke:#ffffff;stroke-width:0.52916676;stroke-linecap:butt;stroke-linejoin:miter;stroke-miterlimit:4;stroke-dasharray:none;stroke-opacity:1"
       id="path4447"
       sodipodi:sides="3"
       sodipodi:cx="-3.8754072"
       sodipodi:cy="-265.05688"
       sodipodi:r1="5.9634771"
       sodipodi:r2="2.9817388"
       sodipodi:arg1="0.52359878"
       sodipodi:arg2="1.5707963"
       inkscape:flatsided="true"
       inkscape:rounded="0"
       inkscape:randomized="0"
       d="m 1.2891155,-262.07515 -10.3290454,0 5.1645227,-8.94521 z"
       inkscape:transform-center-y="1.4908782"
       transform="rotate(90,-293.57805,4.8442597)" />
    <circle
       style="fill:#000000;fill-opacity:1;stroke:none;stroke-width:0.5;stroke-miterlimit:4;stroke-dasharray:none;stroke-opacity:1"
       id="path4526"
       cx="-23.47204"
       cy="294.34644"
       r="0.96885204" />
    <g
       id="g4583"
       transform="translate(-29.263351,-3.1411858)">
      <path
         inkscape:connector-curvature="0"
         id="path13"
         d="m 14.955508,288.53333 a 6.4888389,3.7583868 0 0 1 -6.4888397,3.75839 6.4888389,3.7583868 0 0 1 -6.4888399,-3.75839 6.4888389,3.7583868 0 0 1 6.4888399,-3.75838 6.4888389,3.7583868 0 0 1 6.4888397,3.75838 z"
         style="fill:none;stroke:#ffffff;stroke-width:0.57918143;stroke-miterlimit:4;stroke-dasharray:none;stroke-opacity:1" />
      <circle
         r="2.8106213"
         cy="288.53333"
         cx="8.4666681"
         id="path4524"
         style="fill:#ffffff;fill-opacity:1;stroke:#ffffff;stroke-width:1.02595663;stroke-miterlimit:4;stroke-dasharray:none;stroke-opacity:1" />
      <rect
         ry="1.5552943"
         transform="matrix(0.93274187,-0.36054488,0.34440922,0.93881962,0,0)"
         y="270.7182"
         x="-98.317078"
         height="3.1105886"
         width="13.862405"
         id="rect4549"
         style="fill:#807e80;fill-opacity:1;stroke:none;stroke-width:0.62659019;stroke-miterlimit:4;stroke-dasharray:none;stroke-opacity:1" />
    </g>
    <g
       id="g852">
      <path
         sodipodi:nodetypes="cc"
         inkscape:connector-curvature="0"
         id="path4551"
         d="m 23.907152,284.19515 c 5.246267,-4.83194 9.918202,-4.53036 12.818115,-0.66804"
         style="fill:none;stroke:#ffffff;stroke-width:0.84413487;stroke-linecap:round;stroke-linejoin:miter;stroke-miterlimit:4;stroke-dasharray:none;stroke-opacity:1" />
      <path
         sodipodi:nodetypes="cc"
         inkscape:connector-curvature="0"
         id="path4551-3"
         d="m 25.152336,283.82202 c 5.173101,4.26619 8.713461,3.11518 11.572931,-0.29491"
         style="fill:none;stroke:#ffffff;stroke-width:0.84413487;stroke-linecap:round;stroke-linejoin:miter;stroke-miterlimit:4;stroke-dasharray:none;stroke-opacity:1" />
      <ellipse
         ry="1.7702988"
         rx="1.6488314"
         cy="283.42688"
         cx="31.187681"
         id="path4568"
         style="fill:#ffffff;fill-opacity:1;stroke:none;stroke-width:0.60879725;stroke-miterlimit:4;stroke-dasharray:none;stroke-opacity:1" />
    </g>
    <path
       style="fill:none;stroke:#ffffff;stroke-width:0.84413487;stroke-linecap:round;stroke-linejoin:miter;stroke-miterlimit:4;stroke-dasharray:none;stroke-opacity:1"
       d="m 24.661302,293.93135 c 5.246267,-4.83194 9.918202,-4.53036 12.818115,-0.66804"
       id="path4551-7"
       inkscape:connector-curvature="0"
       sodipodi:nodetypes="cc" />
    <path
       style="fill:none;stroke:#ffffff;stroke-width:0.84413487;stroke-linecap:round;stroke-linejoin:miter;stroke-miterlimit:4;stroke-dasharray:none;stroke-opacity:1"
       d="m 25.906486,293.55822 c 5.173101,4.26619 8.713461,3.11518 11.572931,-0.29491"
       id="path4551-3-5"
       inkscape:connector-curvature="0"
       sodipodi:nodetypes="cc" />
    <path
       inkscape:connector-curvature="0"
       id="path4161-3"
       d="m 16.328194,288.53335 a 7.8615277,7.8615223 0 0 1 -7.8615272,7.86151 7.8615277,7.8615223 0 0 1 -7.86152762,-7.86151 7.8615277,7.8615223 0 0 1 7.86152762,-7.86154 7.8615277,7.8615223 0 0 1 7.8615272,7.86154 z"
       style="opacity:1;fill:none;fill-opacity:1;stroke:#ffffff;stroke-width:1;stroke-linecap:round;stroke-linejoin:round;stroke-miterlimit:4;stroke-dasharray:none;stroke-opacity:1" />
    <ellipse
       style="fill:#ffffff;fill-opacity:1;stroke:none;stroke-width:0.60879725;stroke-miterlimit:4;stroke-dasharray:none;stroke-opacity:1"
       id="path4568-3"
       cx="8.4666662"
       cy="293.54999"
       rx="1.6488314"
       ry="1.7702988" />
    <path
       inkscape:connector-curvature="0"
       id="path4161-5"
       d="m 3.0190599,271.22765 a 5.7777126,5.7777086 0 0 1 -5.7777144,5.7777 5.7777126,5.7777086 0 0 1 -5.7777121,-5.7777 5.7777126,5.7777086 0 0 1 5.7777121,-5.77772 5.7777126,5.7777086 0 0 1 5.7777144,5.77772 z"
       style="opacity:1;fill:none;fill-opacity:1;stroke:#ffffff;stroke-width:0.35082418;stroke-linecap:round;stroke-linejoin:round;stroke-miterlimit:4;stroke-dasharray:none;stroke-opacity:1" />
    <rect
       style="fill:#ffffff;fill-opacity:1;stroke:none;stroke-width:0.50625628;stroke-miterlimit:4;stroke-dasharray:none;stroke-opacity:1"
       id="rect4549-6"
       width="9.0484371"
       height="3.1108661"
       x="-290.72137"
       y="7.0950079"
       transform="matrix(6.4170961e-4,-0.99999979,0.99998628,0.00523897,0,0)"
       ry="1.555433" />
  </g>
</svg>
