<?xml version="1.0" encoding="UTF-8" standalone="no"?>
<svg
   xmlns:dc="http://purl.org/dc/elements/1.1/"
   xmlns:cc="http://creativecommons.org/ns#"
   xmlns:rdf="http://www.w3.org/1999/02/22-rdf-syntax-ns#"
   xmlns:svg="http://www.w3.org/2000/svg"
   xmlns="http://www.w3.org/2000/svg"
   xmlns:sodipodi="http://sodipodi.sourceforge.net/DTD/sodipodi-0.dtd"
   xmlns:inkscape="http://www.inkscape.org/namespaces/inkscape"
   viewBox="0 0 22 22"
   version="1.1"
   id="svg6"
   sodipodi:docname="visibility.svg"
   inkscape:version="0.92.3 (2405546, 2018-03-11)">
  <metadata
     id="metadata10">
    <rdf:RDF>
      <cc:Work
         rdf:about="">
        <dc:format>image/svg+xml</dc:format>
        <dc:type
           rdf:resource="http://purl.org/dc/dcmitype/StillImage" />
        <dc:title />
      </cc:Work>
    </rdf:RDF>
  </metadata>
  <sodipodi:namedview
     pagecolor="#6e8186"
     bordercolor="#666666"
     borderopacity="1"
     objecttolerance="10"
     gridtolerance="10"
     guidetolerance="10"
     inkscape:pageopacity="0"
     inkscape:pageshadow="2"
     inkscape:window-width="1440"
     inkscape:window-height="844"
     id="namedview8"
     showgrid="false"
     inkscape:zoom="10.727273"
     inkscape:cx="20.152923"
     inkscape:cy="11"
     inkscape:window-x="0"
     inkscape:window-y="32"
     inkscape:window-maximized="1"
     inkscape:current-layer="svg6" />
  <defs
     id="defs3051">
    <style
       type="text/css"
       id="current-color-scheme">
      .ColorScheme-Text {
        color:#4d4d4d;
      }
      </style>
  </defs>
  <path
     style="color:#4d4d4d;fill:#ffffff;fill-opacity:1;stroke:none;stroke-width:1.25894535"
     d="M 10.997541,5.334746 A 12.589454,12.589422 0 0 0 0.06291204,11.717992 c 0.23304212,0.366896 0.56102018,0.663371 0.94666796,0.867985 a 11.330508,11.330481 0 0 1 9.987961,-5.9922856 5.0357815,5.0357815 0 0 0 -5.0357813,5.0357816 5.0357815,5.0357815 0 0 0 5.0357813,5.035781 5.0357815,5.0357815 0 0 0 5.035782,-5.035781 5.0357815,5.0357815 0 0 0 -4.603019,-5.0136517 11.330508,11.330481 0 0 1 9.55274,5.9726147 c 0.389546,-0.206017 0.720095,-0.506627 0.954044,-0.87782 A 12.589454,12.589422 0 0 0 10.997541,5.334746 Z m 0,2.5178908 a 3.7768362,3.7768362 0 0 1 3.776836,3.7768362 3.7768362,3.7768362 0 0 1 -3.776836,3.776836 3.7768362,3.7768362 0 0 1 -3.7768359,-3.776836 3.7768362,3.7768362 0 0 1 3.7768359,-3.7768362 z m 0,1.2589454 c -1.3949112,0 -2.5178905,1.1229788 -2.5178905,2.5178908 0,1.394911 1.1229793,2.517891 2.5178905,2.517891 1.394912,0 2.517891,-1.12298 2.517891,-2.517891 0,-0.257845 -0.04912,-0.501318 -0.120485,-0.735204 -0.198765,0.432721 -0.629447,0.735204 -1.13846,0.735204 -0.697456,0 -1.258946,-0.56149 -1.258946,-1.258945 0,-0.509013 0.302483,-0.939692 0.735204,-1.1384609 C 11.49886,9.1607101 11.255386,9.1115822 10.997541,9.1115822 Z"
     class="ColorScheme-Text"
     id="path4"
     inkscape:connector-curvature="0" />
</svg>
